HIERARCHY
ROOT Hips
{
	OFFSET 0.00000 0.00000 0.00000
	CHANNELS 6 Xposition Yposition Zposition Zrotation Yrotation Xrotation 
	JOINT LHipJoint
	{
		OFFSET 0 0 0
		CHANNELS 3 Zrotation Yrotation Xrotation
		JOINT LeftUpLeg
		{
			OFFSET 1.41496 -1.84582 0.78394
			CHANNELS 3 Zrotation Yrotation Xrotation
			JOINT LeftLeg
			{
				OFFSET 2.58040 -7.08960 0.00000
				CHANNELS 3 Zrotation Yrotation Xrotation
				JOINT LeftFoot
				{
					OFFSET 2.64719 -7.27309 0.00000
					CHANNELS 3 Zrotation Yrotation Xrotation
					JOINT LeftToeBase
					{
						OFFSET 0.20718 -0.56921 2.20259
						CHANNELS 3 Zrotation Yrotation Xrotation
						End Site
						{
							OFFSET 0.00000 -0.00000 1.14243
						}
					}
				}
			}
		}
	}
	JOINT RHipJoint
	{
		OFFSET 0 0 0
		CHANNELS 3 Zrotation Yrotation Xrotation
		JOINT RightUpLeg
		{
			OFFSET -1.40551 -1.84582 0.78394
			CHANNELS 3 Zrotation Yrotation Xrotation
			JOINT RightLeg
			{
				OFFSET -2.56572 -7.04926 0.00000
				CHANNELS 3 Zrotation Yrotation Xrotation
				JOINT RightFoot
				{
					OFFSET -2.57974 -7.08778 0.00000
					CHANNELS 3 Zrotation Yrotation Xrotation
					JOINT RightToeBase
					{
						OFFSET -0.26704 -0.73369 2.20815
						CHANNELS 3 Zrotation Yrotation Xrotation
						End Site
						{
							OFFSET -0.00000 -0.00000 1.16246
						}
					}
				}
			}
		}
	}
	JOINT LowerBack
	{
		OFFSET 0 0 0
		CHANNELS 3 Zrotation Yrotation Xrotation
		JOINT Spine
		{
			OFFSET -0.04690 2.05196 -0.07017
			CHANNELS 3 Zrotation Yrotation Xrotation
			JOINT Spine1
			{
				OFFSET 0.04085 2.05260 0.00800
				CHANNELS 3 Zrotation Yrotation Xrotation
				JOINT Neck
				{
					OFFSET 0 0 0
					CHANNELS 3 Zrotation Yrotation Xrotation
					JOINT Neck1
					{
						OFFSET -0.03582 1.80995 0.19301
						CHANNELS 3 Zrotation Yrotation Xrotation
						JOINT Head
						{
							OFFSET 0.00952 1.80195 -0.36389
							CHANNELS 3 Zrotation Yrotation Xrotation
							End Site
							{
								OFFSET 0.00392 1.85062 -0.14494
							}
						}
					}
				}
				JOINT LeftShoulder
				{
					OFFSET 0 0 0
					CHANNELS 3 Zrotation Yrotation Xrotation
					JOINT LeftArm
					{
						OFFSET 3.55224 1.39726 -0.13667
						CHANNELS 3 Zrotation Yrotation Xrotation
						JOINT LeftForeArm
						{
							OFFSET 5.14507 -0.00000 -0.00000
							CHANNELS 3 Zrotation Yrotation Xrotation
							JOINT LeftHand
							{
								OFFSET 3.50646 -0.00000 0.00000
								CHANNELS 3 Zrotation Yrotation Xrotation
								JOINT LeftFingerBase
								{
									OFFSET 0 0 0
									CHANNELS 3 Zrotation Yrotation Xrotation
									JOINT LeftHandIndex1
									{
										OFFSET 0.62997 -0.00000 0.00000
										CHANNELS 3 Zrotation Yrotation Xrotation
										End Site
										{
											OFFSET 0.50790 -0.00000 0.00000
										}
									}
								}
								JOINT LThumb
								{
									OFFSET 0 0 0
									CHANNELS 3 Zrotation Yrotation Xrotation
									End Site
									{
										OFFSET 0.51565 -0.00000 0.51565
									}
								}
							}
						}
					}
				}
				JOINT RightShoulder
				{
					OFFSET 0 0 0
					CHANNELS 3 Zrotation Yrotation Xrotation
					JOINT RightArm
					{
						OFFSET -3.06467 1.61290 -0.28813
						CHANNELS 3 Zrotation Yrotation Xrotation
						JOINT RightForeArm
						{
							OFFSET -5.23200 -0.00000 -0.00000
							CHANNELS 3 Zrotation Yrotation Xrotation
							JOINT RightHand
							{
								OFFSET -3.65641 -0.00000 0.00000
								CHANNELS 3 Zrotation Yrotation Xrotation
								JOINT RightFingerBase
								{
									OFFSET 0 0 0
									CHANNELS 3 Zrotation Yrotation Xrotation
									JOINT RightHandIndex1
									{
										OFFSET -0.65681 -0.00000 0.00000
										CHANNELS 3 Zrotation Yrotation Xrotation
										End Site
										{
											OFFSET -0.52953 -0.00000 0.00000
										}
									}
								}
								JOINT RThumb
								{
									OFFSET 0 0 0
									CHANNELS 3 Zrotation Yrotation Xrotation
									End Site
									{
										OFFSET -0.53762 -0.00000 0.53762
									}
								}
							}
						}
					}
				}
			}
		}
	}
}
MOTION
Frames: 11
Frame Time: .0083333
2.8675 16.9009 -19.8954 -182.6050 44.4088 -175.3850 0.0000 0.0000 0.0000 -3.0243 -13.7296 -46.5099 11.4502 18.1484 64.2352 0.3850 -6.3222 -11.2357 0.5536 -4.7663 -13.2431 0.0000 0.0000 0.0000 34.0192 -1.6229 -10.6370 -5.9484 -14.3781 44.7742 0.0653 -18.0384 -24.9796 -2.9631 10.6350 -31.0587 3.2362 0.0665 9.9918 2.0741 0.6585 -0.0204 0.2473 0.2945 -5.6249 -4.8867 -3.9862 -18.2594 1.6729 -4.3963 11.4868 0.8458 -2.1937 6.6213 0.0000 -0.0000 0.0000 -82.9673 31.5699 47.7565 116.5323 -57.1653 -82.7590 -0.0000 0.0000 -12.9966 20.3723 -11.0743 -4.0799 -7.1250 0.0000 -0.0000 -4.7317 18.2102 3.0264 0.0000 -0.0000 0.0000 84.5808 -20.4233 46.7553 -137.1548 49.6681 -99.4174 0.0000 -0.0000 -5.9702 -25.1647 13.8367 -6.4107 7.1250 -0.0000 -0.0000 1.5388 -14.7603 1.0963
3.1611 16.9939 -20.2667 -182.0800 44.3867 -175.5860 0.0000 0.0000 0.0000 -3.2822 -13.9373 -46.1875 10.0416 17.4332 59.6272 0.2777 -6.2787 -9.7172 0.6702 -5.2353 -14.5808 0.0000 0.0000 0.0000 33.8394 -2.6997 -8.6943 -5.8309 -14.2625 44.2993 0.2867 -17.4753 -22.0090 -3.1164 10.8812 -31.8802 3.6676 0.1639 10.0680 2.1113 0.8484 0.0543 0.0156 0.3805 -5.5810 -5.1022 -4.1608 -18.1973 1.7800 -4.5992 11.6107 0.8918 -2.2929 6.6657 -0.0000 -0.0000 0.0000 -82.9295 32.2708 47.8138 117.7559 -56.8789 -83.7855 -0.0000 0.0000 -12.9190 20.2257 -10.9475 -4.0024 -7.1250 0.0000 -0.0000 -4.8323 18.3559 3.0756 -0.0000 -0.0000 0.0000 84.0186 -20.5650 47.3658 -138.7083 48.8169 -100.5941 0.0000 -0.0000 -5.2995 -24.8881 14.0358 -6.4197 7.1250 -0.0000 -0.0000 1.7413 -14.5774 1.2476
3.4558 17.0808 -20.6402 -181.5810 44.3873 -175.7660 0.0000 0.0000 0.0000 -3.4931 -14.2195 -45.7268 8.6776 16.5957 54.9683 0.1548 -6.0670 -7.6405 0.8107 -5.7459 -16.0488 0.0000 0.0000 0.0000 33.5441 -3.7360 -7.0280 -5.7892 -14.2209 44.1298 0.4457 -16.7111 -18.8472 -3.1018 10.8581 -31.8028 4.0399 0.2562 10.0646 2.1777 1.0224 0.1149 -0.1495 0.4615 -5.5067 -5.3081 -4.3104 -18.1322 1.8294 -4.7620 11.7658 0.9217 -2.3775 6.7175 0.0000 -0.0000 0.0000 -83.0546 32.9625 47.7115 118.7840 -56.6254 -84.6452 -0.0000 0.0000 -12.8451 20.1654 -10.7910 -3.9333 -7.1250 0.0000 -0.0000 -4.8717 18.5260 3.0825 0.0000 -0.0000 0.0000 83.4075 -20.7211 47.9021 -140.0261 48.0545 -101.5801 0.0000 -0.0000 -4.7261 -24.6165 14.2050 -6.4151 7.1250 -0.0000 -0.0000 1.9380 -14.4269 1.3948
3.7518 17.1597 -21.0163 -181.1360 44.4279 -175.9400 0.0000 0.0000 0.0000 -3.6545 -14.5903 -45.1566 7.3981 15.6581 50.3643 0.0432 -5.6514 -5.1272 0.9675 -6.2624 -17.5477 0.0000 0.0000 0.0000 33.1241 -4.7012 -5.6195 -5.8258 -14.2573 44.2783 0.5416 -15.8376 -15.6766 -2.9112 10.5499 -30.7764 4.3213 0.3510 9.9687 2.2678 1.1843 0.1604 -0.2355 0.5399 -5.3969 -5.4999 -4.4353 -18.0606 1.8296 -4.8875 11.9537 0.9375 -2.4482 6.7764 0.0000 -0.0000 0.0000 -83.3302 33.6471 47.4642 119.6447 -56.4039 -85.3631 -0.0000 0.0000 -12.8452 20.1563 -10.6045 -3.8645 -7.1250 0.0000 -0.0000 -4.8747 18.7236 3.0630 0.0000 -0.0000 0.0000 82.7517 -20.8987 48.3589 -141.1287 47.3868 -102.3960 0.0000 -0.0000 -4.3370 -24.3585 14.3257 -6.3919 7.1250 -0.0000 -0.0000 2.1217 -14.3277 1.5317
4.0492 17.2284 -21.3940 -180.7430 44.5133 -176.1160 0.0000 0.0000 0.0000 -3.7443 -15.0612 -44.5084 6.2388 14.6558 45.9326 -0.0325 -5.0452 -2.3201 1.1147 -6.7074 -18.8514 0.0000 0.0000 0.0000 32.6049 -5.5700 -4.4400 -5.9446 -14.3744 44.7590 0.5797 -14.9575 -12.7881 -2.6076 10.0309 -29.0769 4.5117 0.4502 9.7930 2.3753 1.3365 0.1932 -0.2493 0.6166 -5.2573 -5.6686 -4.5367 -17.9793 1.7864 -4.9804 12.1733 0.9391 -2.5062 6.8413 0.0000 0.0000 0.0000 -83.7218 34.3191 47.0987 120.3580 -56.2138 -85.9566 -0.0000 0.0000 -12.9520 20.1913 -10.3912 -3.7949 -7.1250 0.0000 -0.0000 -4.8462 18.9464 3.0210 0.0000 0.0000 0.0000 82.0703 -21.0934 48.7286 -142.0277 46.8216 -103.0546 0.0000 -0.0000 -4.1862 -24.1166 14.3781 -6.3432 7.1250 -0.0000 -0.0000 2.2895 -14.3005 1.6544
4.3475 17.2856 -21.7735 -180.4360 44.6636 -176.3320 0.0000 0.0000 0.0000 -3.7824 -15.6351 -43.7978 5.2272 13.6352 41.7954 -0.0550 -4.2625 0.5475 1.2234 -7.0155 -19.7613 0.0000 0.0000 0.0000 31.9730 -6.3211 -3.4519 -6.1511 -14.5731 45.5850 0.5830 -14.2021 -10.3757 -2.2670 9.4013 -27.0590 4.5974 0.5641 9.5517 2.4828 1.4900 0.2189 -0.2027 0.6966 -5.0903 -5.8132 -4.6207 -17.8832 1.7195 -5.0528 12.4196 0.9315 -2.5557 6.9107 0.0000 -0.0000 0.0000 -84.1863 34.9692 46.6469 120.9409 -56.0540 -86.4406 -0.0000 0.0000 -13.1569 20.2401 -10.1574 -3.7204 -7.1250 0.0000 -0.0000 -4.8078 19.1898 2.9707 0.0000 -0.0000 0.0000 81.3901 -21.2923 48.9904 -142.7224 46.3716 -103.5594 0.0000 -0.0000 -4.2829 -23.8793 14.3613 -6.2664 7.1250 -0.0000 -0.0000 2.4496 -14.3474 1.7678
4.6464 17.3293 -22.1541 -180.2020 44.8909 -176.5850 0.0000 0.0000 0.0000 -3.7615 -16.2910 -43.0668 4.3810 12.6509 38.0753 -0.0233 -3.3200 3.2516 1.2884 -7.1924 -20.2867 0.0000 0.0000 0.0000 31.2575 -6.9249 -2.6367 -6.4514 -14.8519 46.7674 0.5728 -13.6642 -8.5843 -1.9460 8.7527 -25.0246 4.5909 0.6909 9.2579 2.5856 1.6452 0.2375 -0.1079 0.7796 -4.9034 -5.9218 -4.6812 -17.7738 1.6338 -5.0995 12.6901 0.9152 -2.5931 6.9836 -0.0000 -0.0000 0.0000 -84.6958 35.5946 46.1176 121.4060 -55.9235 -86.8261 -0.0000 0.0000 -13.4162 20.2876 -9.9267 -3.6463 -7.1250 0.0000 -0.0000 -4.7705 19.4302 2.9219 -0.0000 -0.0000 0.0000 80.7120 -21.4903 49.1610 -143.2308 46.0349 -103.9263 0.0000 -0.0000 -4.6111 -23.6533 14.2695 -6.1617 7.1250 -0.0000 -0.0000 2.5974 -14.4735 1.8677
4.9450 17.3579 -22.5350 -180.0090 45.2020 -176.8710 0.0000 0.0000 0.0000 -3.6645 -17.0083 -42.3346 3.7061 11.7587 34.8835 0.0496 -2.1939 5.6058 1.3024 -7.2298 -20.3979 0.0000 0.0000 0.0000 30.5007 -7.3614 -1.9628 -6.8502 -15.2044 48.3054 0.5664 -13.3967 -7.4627 -1.6803 8.1656 -23.2183 4.5231 0.8310 8.9491 2.6844 1.8096 0.2523 0.0175 0.8680 -4.7141 -6.0012 -4.7234 -17.6497 1.5434 -5.1286 12.9794 0.8948 -2.6212 7.0586 -0.0000 0.0000 0.0000 -85.2172 36.1897 45.5370 121.7729 -55.8187 -87.1299 -0.0000 0.0000 -13.6932 20.3403 -9.7169 -3.5803 -7.1250 0.0000 -0.0000 -4.7299 19.6483 2.8738 -0.0000 0.0000 0.0000 80.0544 -21.6693 49.2322 -143.5512 45.8194 -104.1565 0.0000 -0.0000 -5.0998 -23.4410 14.1114 -6.0345 7.1250 -0.0000 -0.0000 2.7322 -14.6687 1.9535
5.2426 17.3705 -22.9153 -179.8220 45.5961 -177.1660 0.0000 0.0000 0.0000 -3.5037 -17.7169 -41.6403 3.1982 11.0091 32.3107 0.1427 -0.9045 7.5255 1.2766 -7.1607 -20.1925 0.0000 0.0000 0.0000 29.7447 -7.6205 -1.4258 -7.3497 -15.6194 50.1847 0.5738 -13.4059 -6.9656 -1.4883 7.7071 -21.8281 4.4312 0.9794 8.6373 2.7784 1.9819 0.2649 0.1519 0.9604 -4.5267 -6.0398 -4.7450 -17.5220 1.4502 -5.1390 13.2864 0.8692 -2.6386 7.1370 0.0000 -0.0000 0.0000 -85.7142 36.7472 44.9313 122.0527 -55.7377 -87.3612 -0.0000 0.0000 -13.9350 20.4036 -9.5444 -3.5294 -7.1250 0.0000 -0.0000 -4.6824 19.8266 2.8260 0.0000 -0.0000 0.0000 79.4342 -21.8114 49.2108 -143.6858 45.7281 -104.2529 0.0000 -0.0000 -5.6546 -23.2363 13.9103 -5.8930 7.1250 -0.0000 -0.0000 2.8599 -14.9085 2.0304
5.5385 17.3668 -23.2940 -179.5820 46.0618 -177.4370 0.0000 0.0000 0.0000 -3.3060 -18.3104 -41.0184 2.8447 10.4393 30.4114 0.2383 0.5136 9.0519 1.1988 -6.9470 -19.5585 0.0000 0.0000 0.0000 29.0479 -7.7063 -1.0231 -7.9474 -16.0804 52.3729 0.6019 -13.7005 -6.9522 -1.3633 7.3902 -20.8765 4.3582 1.1258 8.3512 2.8797 2.1567 0.2723 0.2837 1.0534 -4.3600 -6.0454 -4.7463 -17.3995 1.3601 -5.1296 13.6169 0.8414 -2.6445 7.2225 -0.0000 0.0000 0.0000 -86.1728 37.2693 44.3144 122.2669 -55.6750 -87.5382 -0.0000 0.0000 -14.1028 20.4789 -9.4204 -3.4980 -7.1250 0.0000 -0.0000 -4.6269 19.9528 2.7793 -0.0000 0.0000 0.0000 78.8520 -21.9126 49.1146 -143.6437 45.7567 -104.2228 0.0000 -0.0000 -6.1754 -23.0365 13.6892 -5.7464 7.1250 -0.0000 -0.0000 2.9839 -15.1686 2.1021
5.8321 17.3472 -23.6700 -179.2430 46.5841 -177.6700 0.0000 0.0000 0.0000 -3.1295 -18.6555 -40.4758 2.6288 10.0683 29.1983 0.3266 1.8720 10.3059 1.0920 -6.6409 -18.6557 0.0000 0.0000 0.0000 28.4532 -7.6386 -0.7367 -8.6369 -16.5683 54.8258 0.6495 -14.2214 -7.2569 -1.2753 7.1571 -20.1817 4.3402 1.2599 8.1248 2.9963 2.3264 0.2828 0.4011 1.1430 -4.2235 -6.0229 -4.7282 -17.2903 1.2812 -5.1011 13.9642 0.8147 -2.6387 7.3147 -0.0000 -0.0000 0.0000 -86.5783 37.7477 43.7073 122.4334 -55.6259 -87.6756 -0.0000 0.0000 -14.1789 20.5769 -9.3431 -3.4877 -7.1250 0.0000 -0.0000 -4.5558 20.0280 2.7286 -0.0000 -0.0000 0.0000 78.3231 -21.9577 48.9501 -143.4285 45.9022 -104.0684 0.0000 -0.0000 -6.5764 -22.8326 13.4791 -5.6049 7.1250 -0.0000 -0.0000 3.1123 -15.4164 2.1762
